{
    "asset" : {
        "generator" : "Khronos glTF Blender I/O v3.2.40",
        "version" : "2.0"
    },
    "scene" : 0,
    "scenes" : [
        {
            "name" : "Scene",
            "nodes" : [
                0,
                1,
                2,
                3
            ]
        }
    ],
    "nodes" : [
        {
            "mesh" : 0,
            "name" : "Crown"
        },
        {
            "mesh" : 1,
            "name" : "Cape"
        },
        {
            "mesh" : 2,
            "name" : "Visor"
        },
        {
            "mesh" : 3,
            "name" : "Top point",
            "scale" : [
                0.04488902911543846,
                0.021158408373594284,
                0.04488902911543846
            ],
            "translation" : [
                0,
                0.927571177482605,
                0
            ]
        }
    ],
    "materials" : [
        {
            "doubleSided" : true,
            "name" : "Material.001",
            "pbrMetallicRoughness" : {
                "baseColorFactor" : [
                    0.800000011920929,
                    0.800000011920929,
                    0.800000011920929,
                    1
                ],
                "metallicFactor" : 0,
                "roughnessFactor" : 0.5
            }
        },
        {
            "doubleSided" : true,
            "name" : "Material.004",
            "pbrMetallicRoughness" : {
                "baseColorFactor" : [
                    0.800000011920929,
                    0.800000011920929,
                    0.800000011920929,
                    1
                ],
                "metallicFactor" : 0,
                "roughnessFactor" : 0.5
            }
        },
        {
            "doubleSided" : true,
            "name" : "Material.002",
            "pbrMetallicRoughness" : {
                "baseColorFactor" : [
                    0.800000011920929,
                    0.800000011920929,
                    0.800000011920929,
                    1
                ],
                "metallicFactor" : 0,
                "roughnessFactor" : 0.5
            }
        },
        {
            "doubleSided" : true,
            "name" : "Material.003",
            "pbrMetallicRoughness" : {
                "baseColorFactor" : [
                    0.800000011920929,
                    0.800000011920929,
                    0.800000011920929,
                    1
                ],
                "metallicFactor" : 0,
                "roughnessFactor" : 0.5
            }
        }
    ],
    "meshes" : [
        {
            "name" : "Sphere",
            "primitives" : [
                {
                    "attributes" : {
                        "POSITION" : 0,
                        "NORMAL" : 1,
                        "TEXCOORD_0" : 2
                    },
                    "indices" : 3,
                    "material" : 0
                }
            ]
        },
        {
            "name" : "Sphere.001",
            "primitives" : [
                {
                    "attributes" : {
                        "POSITION" : 4,
                        "NORMAL" : 5,
                        "TEXCOORD_0" : 6
                    },
                    "indices" : 7,
                    "material" : 1
                }
            ]
        },
        {
            "name" : "Sphere.002",
            "primitives" : [
                {
                    "attributes" : {
                        "POSITION" : 8,
                        "NORMAL" : 9,
                        "TEXCOORD_0" : 10
                    },
                    "indices" : 11,
                    "material" : 2
                }
            ]
        },
        {
            "name" : "Sphere.003",
            "primitives" : [
                {
                    "attributes" : {
                        "POSITION" : 12,
                        "NORMAL" : 13,
                        "TEXCOORD_0" : 14
                    },
                    "indices" : 15,
                    "material" : 3
                }
            ]
        }
    ],
    "accessors" : [
        {
            "bufferView" : 0,
            "componentType" : 5126,
            "count" : 272,
            "max" : [
                0.891270637512207,
                0.927571177482605,
                0.9999994039535522
            ],
            "min" : [
                -0.891270637512207,
                -0.011199336498975754,
                -0.9999987483024597
            ],
            "type" : "VEC3"
        },
        {
            "bufferView" : 1,
            "componentType" : 5126,
            "count" : 272,
            "type" : "VEC3"
        },
        {
            "bufferView" : 2,
            "componentType" : 5126,
            "count" : 272,
            "type" : "VEC2"
        },
        {
            "bufferView" : 3,
            "componentType" : 5123,
            "count" : 1440,
            "type" : "SCALAR"
        },
        {
            "bufferView" : 4,
            "componentType" : 5126,
            "count" : 34,
            "max" : [
                0.891270637512207,
                -4.371138828673793e-08,
                0.03417344391345978
            ],
            "min" : [
                -0.891270637512207,
                -1.6071828603744507,
                -0.9999987483024597
            ],
            "type" : "VEC3"
        },
        {
            "bufferView" : 5,
            "componentType" : 5126,
            "count" : 34,
            "type" : "VEC3"
        },
        {
            "bufferView" : 6,
            "componentType" : 5126,
            "count" : 34,
            "type" : "VEC2"
        },
        {
            "bufferView" : 7,
            "componentType" : 5123,
            "count" : 96,
            "type" : "SCALAR"
        },
        {
            "bufferView" : 8,
            "componentType" : 5126,
            "count" : 26,
            "max" : [
                0.8377030491828918,
                0.14897285401821136,
                1.7793841361999512
            ],
            "min" : [
                -0.8377030491828918,
                -4.371138828673793e-08,
                0.3826834559440613
            ],
            "type" : "VEC3"
        },
        {
            "bufferView" : 9,
            "componentType" : 5126,
            "count" : 26,
            "type" : "VEC3"
        },
        {
            "bufferView" : 10,
            "componentType" : 5126,
            "count" : 26,
            "type" : "VEC2"
        },
        {
            "bufferView" : 11,
            "componentType" : 5123,
            "count" : 72,
            "type" : "SCALAR"
        },
        {
            "bufferView" : 12,
            "componentType" : 5126,
            "count" : 380,
            "max" : [
                0.9510566592216492,
                1,
                1.000000238418579
            ],
            "min" : [
                -0.9510566592216492,
                -1,
                -1
            ],
            "type" : "VEC3"
        },
        {
            "bufferView" : 13,
            "componentType" : 5126,
            "count" : 380,
            "type" : "VEC3"
        },
        {
            "bufferView" : 14,
            "componentType" : 5126,
            "count" : 380,
            "type" : "VEC2"
        },
        {
            "bufferView" : 15,
            "componentType" : 5123,
            "count" : 540,
            "type" : "SCALAR"
        }
    ],
    "bufferViews" : [
        {
            "buffer" : 0,
            "byteLength" : 3264,
            "byteOffset" : 0
        },
        {
            "buffer" : 0,
            "byteLength" : 3264,
            "byteOffset" : 3264
        },
        {
            "buffer" : 0,
            "byteLength" : 2176,
            "byteOffset" : 6528
        },
        {
            "buffer" : 0,
            "byteLength" : 2880,
            "byteOffset" : 8704
        },
        {
            "buffer" : 0,
            "byteLength" : 408,
            "byteOffset" : 11584
        },
        {
            "buffer" : 0,
            "byteLength" : 408,
            "byteOffset" : 11992
        },
        {
            "buffer" : 0,
            "byteLength" : 272,
            "byteOffset" : 12400
        },
        {
            "buffer" : 0,
            "byteLength" : 192,
            "byteOffset" : 12672
        },
        {
            "buffer" : 0,
            "byteLength" : 312,
            "byteOffset" : 12864
        },
        {
            "buffer" : 0,
            "byteLength" : 312,
            "byteOffset" : 13176
        },
        {
            "buffer" : 0,
            "byteLength" : 208,
            "byteOffset" : 13488
        },
        {
            "buffer" : 0,
            "byteLength" : 144,
            "byteOffset" : 13696
        },
        {
            "buffer" : 0,
            "byteLength" : 4560,
            "byteOffset" : 13840
        },
        {
            "buffer" : 0,
            "byteLength" : 4560,
            "byteOffset" : 18400
        },
        {
            "buffer" : 0,
            "byteLength" : 3040,
            "byteOffset" : 22960
        },
        {
            "buffer" : 0,
            "byteLength" : 1080,
            "byteOffset" : 26000
        }
    ],
    "buffers" : [
        {
            "byteLength" : 27080,
            "uri" : "cap.bin"
        }
    ]
}
